<svg width="26" height="26" viewBox="0 0 26 26" fill="none" xmlns="http://www.w3.org/2000/svg">
<path d="M5.198 6.9227H22.0769C22.419 6.92271 22.7572 6.99439 23.0698 7.13311C23.3824 7.27183 23.6625 7.47452 23.892 7.72811C24.1214 7.9817 24.2952 8.28056 24.4022 8.60542C24.5091 8.93029 24.5467 9.27396 24.5127 9.61427L23.7783 16.9583C23.7179 17.5623 23.4352 18.1224 22.9851 18.5297C22.535 18.9371 21.9496 19.1627 21.3425 19.1627H9.65335C9.08722 19.1629 8.53851 18.9669 8.10064 18.608C7.66278 18.2492 7.36283 17.7497 7.25187 17.1945L5.198 6.9227Z" stroke="black" stroke-width="2.448" stroke-linejoin="round"/>
<path d="M5.198 6.9227L4.20656 2.95327C4.14025 2.68858 3.9874 2.45364 3.77229 2.28577C3.55718 2.11789 3.29214 2.02671 3.01928 2.0267H1.526" stroke="black" stroke-width="2.448" stroke-linecap="round" stroke-linejoin="round"/>
<path d="M8.87 24.0587H11.318" stroke="black" stroke-width="2.448" stroke-linecap="round" stroke-linejoin="round"/>
<path d="M18.662 24.0587H21.11" stroke="black" stroke-width="2.448" stroke-linecap="round" stroke-linejoin="round"/>
</svg>
