<?xml version="1.0" standalone="no"?>
<!DOCTYPE svg PUBLIC "-//W3C//DTD SVG 20010904//EN"
 "http://www.w3.org/TR/2001/REC-SVG-20010904/DTD/svg10.dtd">
<svg version="1.0" xmlns="http://www.w3.org/2000/svg"
 width="281.000000pt" height="281.000000pt" viewBox="0 0 281.000000 281.000000"
 preserveAspectRatio="xMidYMid meet">

<g transform="translate(0.000000,281.000000) scale(0.100000,-0.100000)"
fill="#000000" stroke="none">
<path d="M1380 1859 c-192 -25 -399 -87 -524 -159 -80 -46 -180 -129 -216
-181 l-21 -29 150 0 c137 0 151 2 151 18 0 9 11 41 25 70 l24 52 90 0 90 0
-13 -32 c-8 -18 -16 -50 -20 -70 l-7 -38 144 0 144 0 -9 51 c-25 138 53 255
205 310 l52 18 -100 -1 c-55 0 -129 -4 -165 -9z m115 -11 c-22 -5 -68 -19
-102 -29 -37 -12 -81 -19 -110 -17 l-48 3 90 22 c105 26 128 30 175 31 l35 0
-40 -10z m-230 -91 c-22 -18 -53 -47 -69 -64 -29 -32 -32 -33 -110 -33 l-81 1
40 35 c75 66 133 94 200 93 l60 0 -40 -32z"/>
<path d="M1580 1811 c-103 -33 -166 -110 -177 -215 -3 -28 -1 -68 5 -89 l10
-37 -306 -2 -307 -1 318 -10 c175 -5 320 -7 323 -5 2 3 -3 21 -11 41 -63 150
76 326 240 304 80 -11 151 -64 181 -136 21 -49 21 -138 0 -179 l-17 -33 108 7
c59 4 110 8 112 10 2 2 -37 4 -88 4 l-93 0 7 32 c28 124 -26 243 -133 294 -41
20 -133 28 -172 15z"/>
<path d="M1576 1765 c-169 -60 -176 -291 -11 -366 55 -26 102 -23 163 7 122
61 146 213 48 310 -59 60 -125 76 -200 49z m164 -71 c70 -64 74 -158 9 -223
-63 -63 -156 -61 -219 4 -33 34 -35 40 -35 105 0 63 3 71 30 100 38 41 58 49
122 49 47 1 57 -3 93 -35z"/>
<path d="M660 1301 c0 -73 7 -86 41 -76 18 6 20 14 17 73 -3 65 -4 67 -30 70
l-28 3 0 -70z m45 24 c0 -10 -6 -20 -12 -22 -8 -3 -13 5 -13 22 0 17 5 25 13
23 6 -3 12 -13 12 -23z m0 -60 c0 -10 -6 -20 -12 -22 -8 -3 -13 5 -13 22 0 17
5 25 13 23 6 -3 12 -13 12 -23z"/>
<path d="M813 1363 c-9 -3 -13 -27 -13 -68 0 -49 4 -64 16 -69 29 -11 44 13
44 68 0 29 -5 57 -12 64 -13 13 -16 13 -35 5z m27 -69 c0 -40 -4 -55 -12 -52
-14 5 -23 70 -14 94 12 32 26 11 26 -42z"/>
<path d="M942 1358 c-18 -18 -15 -113 3 -128 12 -10 18 -10 30 0 28 24 16 140
-15 140 -3 0 -11 -5 -18 -12z m28 -63 c0 -30 -4 -55 -10 -55 -5 0 -10 25 -10
55 0 30 5 55 10 55 6 0 10 -25 10 -55z"/>
<path d="M1060 1301 c0 -39 5 -73 10 -76 6 -4 10 7 10 27 l1 33 15 -34 c8 -19
17 -31 20 -28 4 4 1 20 -6 36 -11 28 -10 54 6 95 3 9 2 16 -4 16 -6 0 -15 -12
-20 -27 l-10 -28 -1 28 c-1 15 -5 27 -11 27 -6 0 -10 -30 -10 -69z"/>
<path d="M1336 1323 c-4 -27 -9 -60 -12 -75 -3 -17 -1 -28 5 -28 6 0 11 7 11
15 0 8 7 15 15 15 8 0 15 -7 15 -16 0 -8 4 -13 8 -10 5 3 4 37 -1 75 -12 84
-31 95 -41 24z m24 -28 c0 -14 -4 -25 -9 -25 -4 0 -6 11 -3 25 2 14 6 25 8 25
2 0 4 -11 4 -25z"/>
<path d="M1580 1360 c0 -5 7 -10 15 -10 10 0 15 -17 18 -67 l3 -68 2 68 c1 37
7 67 12 67 6 0 10 5 10 10 0 6 -13 10 -30 10 -16 0 -30 -4 -30 -10z"/>
<path d="M1736 1353 c-3 -10 -8 -45 -11 -78 -6 -56 -5 -59 10 -40 l16 20 15
-20 c14 -18 15 -14 9 50 -4 39 -9 73 -12 78 -8 13 -21 8 -27 -10z m20 -80
c-11 -11 -19 6 -11 24 8 17 8 17 12 0 3 -10 2 -21 -1 -24z"/>
<path d="M1864 1294 c0 -53 3 -72 10 -61 9 14 11 14 23 -1 12 -15 13 -12 7 18
-9 43 -9 58 1 93 5 18 3 27 -4 27 -6 0 -11 -8 -11 -17 0 -15 -1 -15 -13 1 -11
14 -13 5 -13 -60z"/>
<path d="M1990 1360 c0 -5 5 -10 10 -10 6 0 10 -25 10 -55 0 -30 -4 -55 -10
-55 -5 0 -10 -4 -10 -10 0 -5 10 -10 23 -10 21 0 22 4 22 75 0 71 -1 75 -22
75 -13 0 -23 -4 -23 -10z"/>
</g>
</svg>
