<svg xmlns="http://www.w3.org/2000/svg" xmlns:xlink="http://www.w3.org/1999/xlink" viewBox="0 0 765.47 771"><defs><style>.cls-1{fill:url(#linear-gradient);}.cls-2{fill:url(#linear-gradient-2);}.cls-3{fill:url(#linear-gradient-3);}.cls-4{fill:url(#linear-gradient-4);}.cls-5{fill:url(#linear-gradient-5);}</style><linearGradient id="linear-gradient" x1="255.47" y1="255" x2="765.47" y2="255" gradientUnits="userSpaceOnUse"><stop offset="0" stop-color="#82ffff"/><stop offset="0.62" stop-color="#0071bc"/></linearGradient><linearGradient id="linear-gradient-2" x1="96.49" y1="795.74" x2="425.92" y2="211.9" gradientUnits="userSpaceOnUse"><stop offset="0" stop-color="#ff3b3b"/><stop offset="0.11" stop-color="#f63838"/><stop offset="0.29" stop-color="#dc3030"/><stop offset="0.52" stop-color="#b32222"/><stop offset="0.78" stop-color="#7a1010"/><stop offset="0.99" stop-color="#490000"/></linearGradient><linearGradient id="linear-gradient-3" x1="333.59" y1="204.81" x2="49.91" y2="541.56" xlink:href="#linear-gradient-2"/><linearGradient id="linear-gradient-4" x1="44.29" y1="543.95" x2="348.1" y2="770.9" xlink:href="#linear-gradient-2"/><linearGradient id="linear-gradient-5" x1="-31.22" y1="517.5" x2="162.78" y2="513.84" xlink:href="#linear-gradient-2"/></defs><g id="Layer_2" data-name="Layer 2"><g id="Layer_1-2" data-name="Layer 1"><polygon class="cls-1" points="588.47 510 433.47 510 433.47 332 380.65 332 380.65 317 448.47 317 448.47 495 573.47 495 573.47 317 750.47 317 750.47 192 573.47 192 573.47 15 448.47 15 448.47 192 270.47 192 270.47 243.25 255.47 243.25 255.47 177 433.47 177 433.47 0 588.47 0 588.47 177 765.47 177 765.47 332 588.47 332 588.47 510"/><path class="cls-2" d="M503,519.5A251.49,251.49,0,0,1,251.5,771H106.3A251.49,251.49,0,0,0,357.8,519.5c0-.49,0-1,0-1.5s0-1.27,0-1.9-.05-1.16-.07-1.76a.28.28,0,0,0,0-.18c0-1.66-.08-3.35-.16-5C352.15,375.06,241.73,268,106.3,268H251.5C390.4,268,503,380.6,503,519.5Z"/><path class="cls-3" d="M357.57,509.15A105.52,105.52,0,0,0,252.3,410.6H0V268H106.3C241.73,268,352.15,375.06,357.57,509.15Z"/><path class="cls-4" d="M357.8,519.5A251.49,251.49,0,0,1,106.3,771H0V621.6H252.3A105.49,105.49,0,0,0,357.78,518C357.8,518.49,357.8,519,357.8,519.5Z"/><rect class="cls-5" y="439.12" width="137.42" height="152.97"/></g></g></svg>